# xmcd CD database file
#
# Track frame offsets:
#	150
#	7347
#	25384
#	45622
#	58206
#	72686
#	95158
#	106770
#	128237
#	136526
#	162819
#	171522
#	193949
#	215521
#	237929
#
# Disc length: 3602 seconds
#
# Revision: 2
# Processed by: cddbd v1.5.1PL0 Copyright (c) Steve Scherf et al.
# Submitted via: CDex 1.51
#
DISCID=e20e100f
DTITLE=Rhian Sheehan - paradigm shift
DYEAR=2001
DGENRE=Ambient
TTITLE0=intro
TTITLE1=she walks into mine
TTITLE2=waiting (feat. lotus)
TTITLE3=my absolution
TTITLE4=air on a bass string
TTITLE5=childsmind
TTITLE6=an afternoon on the moon
TTITLE7=garden children
TTITLE8=humoured
TTITLE9=synthetic city
TTITLE10=journey to wakatuhuri
TTITLE11=the paradigm shift
TTITLE12=existing above
TTITLE13=waiting (sea of tranquility remix)
TTITLE14=connected
EXTD=YEAR: 2001
EXTT0=
EXTT1=
EXTT2=
EXTT3=
EXTT4=
EXTT5=
EXTT6=
EXTT7=
EXTT8=
EXTT9=
EXTT10=
EXTT11=
EXTT12=
EXTT13=
EXTT14=
PLAYORDER=
